<svg xmlns="http://www.w3.org/2000/svg" width="28" height="29" fill="none">
  <mask id="a" fill="#fff">
    <path fillRule="evenodd" d="M19.4 4.8A3.1 3.1 0 0 1 23.6 9c2 4 1.3 9.1-2.2 12.7a11.1 11.1 0 0 1-12.7 2.5 3.1 3.1 0 0 1-4.2-4 11 11 0 0 1 2.1-13 11 11 0 0 1 12.8-2.5Zm.7 6.8a.8.8 0 0 0-1.4.7c.2.3.3 1.4 0 2.6a6 6 0 0 1-2.4 3.6.7.7 0 1 0 .8 1.3c1.8-1.3 2.7-3 3-4.5.4-1.5.3-2.9 0-3.7Z" clipRule="evenodd"/>
  </mask>
  <path fill="#FFC700" fillRule="evenodd" d="M19.4 4.8A3.1 3.1 0 0 1 23.6 9c2 4 1.3 9.1-2.2 12.7a11.1 11.1 0 0 1-12.7 2.5 3.1 3.1 0 0 1-4.2-4 11 11 0 0 1 2.1-13 11 11 0 0 1 12.8-2.5Zm.7 6.8a.8.8 0 0 0-1.4.7c.2.3.3 1.4 0 2.6a6 6 0 0 1-2.4 3.6.7.7 0 1 0 .8 1.3c1.8-1.3 2.7-3 3-4.5.4-1.5.3-2.9 0-3.7Z" clipRule="evenodd"/>
  <path fill="#FFC700" d="m20.3 4.6-.3-2 .3 2Zm-.9.2-.9 1.8.9.5.9-.5-.9-1.8Zm4.5 2.3-2 .3 2-.3ZM23.6 9l-1.8-1-.4 1 .4.8 1.8-1Zm-2.2 12.7 1.4 1.4-1.4-1.4ZM8.7 24.2l.9-1.8-1-.4-.8.4.9 1.8Zm-1 .3-.2-2 .3 2ZM4.3 22l2-.3-2 .3Zm.3-1.8 1.8.9.4-1-.5-.8-1.7 1Zm2-12.9L5.2 5.9l1.4 1.4Zm13.5 4.3 1.8-.8-1.8.8Zm-1.4.7 1.8-.9-1.8.9Zm0 2.6-2-.4 2 .4Zm-2.4 3.6L15 17l1.2 1.6Zm-.2 1.1 1.6-1.2-1.6 1.2Zm1 .2 1.2 1.6-1.2-1.6Zm3-4.5 2 .5-2-.5ZM20 2.6a3 3 0 0 0-1.5.5l1.8 3.5h.3l-.6-4Zm5.8 4.2A5 5 0 0 0 20 2.6l.6 4a1 1 0 0 1 1.3.8l4-.6Zm-.4 3c.4-.9.6-2 .4-3l-3.9.6-.1.7 3.6 1.8Zm-2.6 13.3a13 13 0 0 0 2.6-15l-3.6 1.8A9 9 0 0 1 20 20.3l2.8 2.8ZM7.8 26a13 13 0 0 0 15-2.9L20 20.3a9 9 0 0 1-10.4 2.1L7.8 26Zm.3.5 1.5-.5-1.8-3.6-.3.1.6 4Zm-5.9-4.2a5.3 5.3 0 0 0 5.9 4.2l-.6-4c-.7.1-1.2-.3-1.3-.9l-4 .7Zm.4-3a5 5 0 0 0-.4 3l4-.7V21l-3.6-1.7ZM5.2 5.9a13 13 0 0 0-2.5 15.2l3.5-2A9 9 0 0 1 8 8.8L5.2 5.9Zm15.1-2.8A13 13 0 0 0 5.2 5.9L8 8.7a9 9 0 0 1 10.5-2L20.3 3Zm-.4 10c-.6.3-1.4 0-1.6-.6l3.6-1.7c-.6-1.4-2.2-2-3.6-1.4l1.6 3.7Zm.6-1.7c.3.7 0 1.4-.6 1.7l-1.6-3.7c-1.4.6-2 2.3-1.4 3.7l3.6-1.7Zm.1 4 .3-2.2a4 4 0 0 0-.4-1.8L17 13.1V13v.3c0 .3 0 .7-.2 1.2l4 1Zm-3.2 4.8a8.3 8.3 0 0 0 3.2-4.8l-3.9-1a4 4 0 0 1-1.6 2.5l2.3 3.3Zm.3-1.8c.4.6.3 1.4-.3 1.8l-2.3-3.3a2.7 2.7 0 0 0-.6 3.9l3.2-2.4Zm-1.7-.3c.5-.4 1.3-.2 1.7.3l-3.2 2.4a2.8 2.8 0 0 0 3.8.6L16 18Zm2.2-3.3c-.3 1.2-1 2.4-2.2 3.3l2.3 3.3a9.8 9.8 0 0 0 3.8-5.6l-3.9-1Zm0-2.3s.2.3.2.8c0 .4 0 1-.2 1.5l3.9 1c.4-1.7.4-3.6-.2-5l-3.6 1.7Z" mask="url(#a)"/>
</svg>
