<svg xmlns="http://www.w3.org/2000/svg" width="24" height="24" fill="none">
  <path fill="#313131" d="M3 6.5c0-.4.3-.7.7-.7h4.8c0-.8.1-2 1-2.8a3.7 3.7 0 0 1 5 0c.9.8 1 2 1 2.8h4.8c.4 0 .7.3.7.7a.7.7 0 0 1-.7.7H3.7a.7.7 0 0 1-.7-.7Z"/>
  <path fill="#313131" d="M11.6 22h.8c2.8 0 4.2 0 5-.9 1-.9 1-2.3 1.3-5.2l.2-4.2c.1-1.6.2-2.4-.3-2.9-.4-.5-1.2-.5-2.7-.5H8c-1.5 0-2.3 0-2.7.5-.5.5-.4 1.3-.3 2.9l.2 4.2c.2 2.9.3 4.3 1.2 5.2 1 .9 2.3.9 5.1.9Z" opacity=".5"/>
  <path fill="#313131" fill-rule="evenodd" d="M9.4 11.5c.4 0 .8.3.8.7l.5 5.3c0 .4-.2.8-.6.8a.8.8 0 0 1-.8-.7l-.5-5.3c0-.4.2-.8.6-.8Zm5.2 0c.4 0 .7.4.6.8l-.5 5.3c0 .4-.4.8-.8.7a.8.8 0 0 1-.6-.8l.5-5.3c0-.4.4-.8.8-.7Z" clip-rule="evenodd"/>
</svg>
